<svg height="100" viewBox="0 0 100 100" width="100" xmlns="http://www.w3.org/2000/svg"><path d="m76.0526316 26.315789h-52.1052632c-1.9789632.0259973-3.5658229 1.6445942-3.5526316 3.6236842v2.5578947c-.0089171.2726689.1074207.5344291.3157895.7105264l26.2736842 21.5289473c1.6527869 1.5992439 4.2761605 1.5992439 5.9289474 0l26.2736842-21.5526316c.2083688-.1760972.3247067-.4378574.3157895-.7105263v-2.5026315c.0444241-1.9573752-1.4933246-3.5866148-3.45-3.6552632zm-55.6342105 11.6131579c-.0016745-.3374393.1922761-.6452975.4973684-.7894737.3136394-.1756333.7063278-.1172169.9552631.1421053l12.75 11.2973684c.1891937.1572354.2942789.3936773.2842106.6394737.0099536.2471821-.0779888.4883147-.2447369.6710526l-12.75 12.0394737c-.2306499.2836754-.6258984.3718713-.9552631.2131579-.3409123-.1413764-.5537135-.4843992-.5289474-.8526316v-23.3605263zm0 29.2105263c.0040257-.2520989.1059478-.4927482.2842105-.6710526l16.05-14.9763158c.325012-.3168983.843409-.3168983 1.168421 0l6.781579 6.0394737c2.9633728 2.7872427 7.5839955 2.7872427 10.5473684 0l6.7815789-6.0394737c.3312484-.3011794.8371728-.3011794 1.1684211 0l16.0578947 14.9447368c.1842936.1741782.2873447.4174934.2842106.6710527v2.9131579c.0147694.9569058-.3512535 1.880475-1.0175251 2.5674751-.6662716.687-1.5781972 1.0811378-2.5351065 1.0956828h-52.0421053c-1.9895587-.0303037-3.5789865-1.6656483-3.5526316-3.6552632v-2.9131579zm59.1552631-5.8578947c.0110161.3646735-.1973312.7005169-.5289474.8526316-.3319504.1322406-.7110189.0476551-.9552631-.2131579l-12.75-12.0631579c-.1667481-.182738-.2546905-.4238706-.2447369-.6710527-.0025034-.2512669.1147566-.4887185.3157895-.6394737l12.75-11.3289473c.2530084-.2310116.6261369-.2724703.9236842-.1026316.3122005.1410397.5172561.4470928.5289474.7894737v23.3526316z" fill="#fff" fill-rule="evenodd"/></svg>