<svg viewBox="0 0 72 72" xmlns="http://www.w3.org/2000/svg"><g style="fill:none;stroke:#000;stroke-linecap:round;stroke-linejoin:round;stroke-miterlimit:10;stroke-width:2"><path d="m22.6699 40.5591-11.215 10.3309c-.35-.6201-.57-1.44-.57-2.32v-26.51"/><path d="m60.8249 22.01v26.56c0 .86-.2 1.65-.55 2.27l-11.3166-10.362"/><path d="m11.5207 21.6493-.0624-.039"/><path d="m26.8049 36.75 4.47 4.13c.24.22.48.41.72.57 2.4301 1.8 5.26 1.8 7.6801-.01.23-.16.47-.36.69-.56l4.5-4.15"/><path d="m47.9294 39.536 12.3455 11.304c-.42.77-1.07 1.27-1.79 1.27h-45.26c-.7 0-1.34-.47-1.77-1.22l12.0781-11.126"/><path d="m60.8249 22.01-15.96 14.72-4.5 4.15c-.22.2-.46.4-.69.56-2.42 1.81-5.25 1.81-7.6801.01-.24-.16-.48-.35-.72-.57l-4.47-4.13-15.92-14.69c.04-.06.09-.13.14-.2.42-.6.99-.96 1.61-.96h46.48c.59 0 1.16.35 1.5699.91.0502.06.1002.13.1402.2z"/></g></svg>