<svg width="15" height="15" xmlns="http://www.w3.org/2000/svg">

 <g>
  <title>background</title>
  <rect fill="none" id="canvas_background" height="402" width="582" y="-1" x="-1"/>
 </g>
 <g>
  <title>Layer 1</title>
  <path stroke="#ffffff" id="svg_1" fill="currentColor" d="m7.5,0.875c-2.00203,0 -3.625,1.62297 -3.625,3.625c0,1.65288 1.011063,2.920477 2.61873,3.48351c-1.19403,0.1455 -2.21816,0.56783 -2.98966,1.32816c-0.98191,0.96773 -1.47905,2.40833 -1.47905,4.28823c0,0.2624 0.21267,0.475 0.475,0.475c0.26234,0 0.475,-0.2126 0.475,-0.475c0,-1.72 0.45284,-2.8793 1.19589,-3.6116c0.74445,-0.73367 1.760653,-2.191984 3.233863,-2.191984c1.47322,0 2.679827,1.458314 3.424327,2.191994c0.743,0.73229 1.1959,1.89159 1.1959,3.61159c0,0.2624 0.2126,0.475 0.475,0.475c0.2623,0.0001 0.475,-0.2126 0.475,-0.4749c0,-1.88 -0.4972,-3.3206 -1.4791,-4.28834c-0.7715,-0.76031 -1.79565,-1.18263 -2.98965,-1.32814c1.51245,-0.43612 2.61875,-1.83063 2.61875,-3.48352c0,-2.00203 -1.62297,-3.625 -3.625,-3.625zm-2.675,3.625c0,-1.47736 1.19764,-2.675 2.675,-2.675c1.47736,0 2.675,1.19764 2.675,2.675c0,1.47736 -1.19764,2.675 -2.675,2.675c-1.47736,0 -2.675,-1.19764 -2.675,-2.675z" clip-rule="evenodd" fill-rule="evenodd"/>
 </g>
</svg>